<mxfile host="app.diagrams.net" modified="2024-02-12T07:36:24.909Z" agent="Mozilla/5.0 (Windows NT 10.0; Win64; x64) AppleWebKit/537.36 (KHTML, like Gecko) Chrome/121.0.0.0 Safari/537.36 Edg/121.0.0.0" version="22.1.17" etag="l8OZBhDpLPs19nKcVMX-" type="github">
  <diagram name="Page-1" id="Iv2SujhQl55DxE3aRjNo">
    <mxGraphModel>
      <root>
        <mxCell id="0" />
        <mxCell id="1" parent="0" />
      </root>
    </mxGraphModel>
  </diagram>
</mxfile>
